<svg xmlns="http://www.w3.org/2000/svg" viewBox="0 0 1024 1024" width="1024" height="1024">
  <defs>
    <filter id="neon-glow" x="-10%" y="-10%" width="120%" height="120%">
      <feGaussianBlur stdDeviation="6" result="blur"/>
      <feMerge><feMergeNode in="blur"/><feMergeNode in="SourceGraphic"/></feMerge>
    </filter>
  </defs>
  <path
    style="fill:#00E5FF"
    filter="url(#neon-glow)"
    d="m 0,0 v 512 512 h 512 512 V 512 0 H 512 Z m 511.959,57 c 0.5541,0 4.0532,1.87095 7.7754,4.1582 3.7222,2.28725 22.5176,13.69285 41.7676,25.3457 42.2343,25.56624 137.0934,83.50899 184.6308,112.7793 34.8513,21.45891 40.3109,25.12549 42.9629,28.84375 l 2.4063,3.37305 0.5,82.63671 0.5,82.63672 9.2558,8.71094 9.2539,8.71289 3.7461,-3.24414 c 2.0596,-1.78465 7.283,-6.58335 11.6074,-10.66211 7.237,-6.82616 7.814,-7.65893 7.25,-10.47851 -0.3369,-1.68475 -0.6132,-16.91312 -0.6132,-33.83985 v -30.77539 l -6.5,-5.27344 -6.5,-5.27343 v -53.20313 -53.20117 l -33.0059,-21.73438 c -16.3616,-10.77493 -30.4953,-19.81918 -33.627,-21.53711 -1.7559,1.17103 -3.7315,2.01711 -5.7968,2.44922 -5.0585,1.12333 -10.6146,-0.3905 -14.3633,-3.98046 -3.7434,-3.41997 -5.8448,-8.60063 -5.3106,-13.66797 0.7126,-7.80618 7.7,-14.59743 15.5899,-14.78711 4.5762,-0.20472 9.1626,1.5668 12.3887,4.82226 4.2801,4.24522 5.8805,10.93432 3.9746,16.6543 -0.1487,0.48316 -0.3212,0.95566 -0.5176,1.41797 l 33.668,22.17969 34.5,22.72656 0.2578,53.51367 0.2597,53.51172 6.4336,5.2207 c 3.5383,2.87079 6.6637,5.82366 6.9473,6.5625 0.2835,0.73883 0.5432,17.85241 0.5762,38.03125 l 0.0605,36.68946 -7.2676,7.10546 c -3.9973,3.90778 -10.08,9.7168 -13.5175,12.91016 l -6.25,5.80664 v 49.55859 49.5586 l 6.25,-5.51172 6.25,-5.51172 -0.3809,-28.37891 -0.3809,-28.3789 15.1309,-14.35352 15.1309,-14.35351 -0.0118,-79.63477 -0.0136,-78.8164 c -1.7962,-0.68158 -3.4702,-1.68387 -4.8985,-2.98633 -3.9546,-3.44976 -6.2009,-8.82142 -5.6191,-14.06641 0.7561,-7.84298 7.8629,-14.60185 15.791,-14.68945 3.006,-0.0874 6.0305,0.66309 8.6484,2.14258 6.5593,3.53358 9.8352,11.95186 7.6114,19.02343 -1.4463,5.03157 -5.559,9.08487 -10.4864,10.7461 -0.3581,0.1279 -0.7219,0.24171 -1.0879,0.34179 -0.9076,3.50251 -0.9335,17.04794 -0.9335,73.73633 0,40.93793 0.3457,74.4336 0.7675,74.4336 0.4219,0 5.5969,-4.8461 11.5,-10.76758 l 10.7325,-10.76563 v -29.65625 -27.83789 c -6.0721,-1.62522 -10.6953,-7.63377 -10.6133,-13.95117 -0.1307,-7.45433 6.4783,-14.31981 13.957,-14.34961 3.661,-0.11816 7.3372,1.22956 10.0723,3.66211 4.553,4.00091 6.0718,11.00733 3.582,16.5332 -1.6285,3.82567 -5.0641,6.70127 -8.9961,7.9375 l 0.0293,30.32618 0.0313,31.36914 -17.6543,17.17968 c -9.7101,9.44903 -23.6266,22.72403 -30.9239,29.5 L 835.2188,456.5 l 0.541,27.58789 c 0.2972,15.1735 0.2474,28.758 -0.1114,30.1875 -0.415,1.6536 -4.2905,5.6096 -10.6503,10.875 l -9.9961,8.27539 v 47.10937 47.10938 l 11.0742,10.15429 11.0722,10.1543 3.8789,-0.36914 c 0.9854,-0.2594 2.0042,-0.40762 3.0391,-0.42383 0.6115,-0.0132 1.2248,0.01 1.834,0.0684 2.4682,-0.014 3.8879,0.45556 5.8105,1.66797 0.3476,0.21917 0.6939,0.47047 1.0332,0.75 4.3053,2.94786 6.8215,8.4105 6.1836,13.60352 -0.0249,0.21426 -0.0545,0.42913 -0.0937,0.64648 -0.0741,0.42379 -0.163,0.84465 -0.2813,1.26172 -0.9836,4.2932 -4.2112,7.8066 -8.1894,9.57617 -0.005,0.002 -0.009,0.004 -0.0137,0.006 l -1.334,0.75977 -0.0117,22.32812 -0.01,22.33008 -21.9199,22.66992 c -12.0565,12.4687 -28.4871,29.19688 -36.5117,37.17188 l -14.5898,14.5 -17.8438,0.5 -17.8457,0.5 -32.3652,31.85348 -30.9844,30.4942 c 2.5232,3.5425 3.3908,8.2586 2.1328,12.4511 -1.3906,5.0653 -5.8434,9.0187 -10.9531,10.0684 -4.5761,0.9955 -9.5919,-0.4701 -12.8867,-3.8066 -3.4457,-3.3385 -5.1442,-8.4343 -4.1289,-13.1543 1.3021,-6.3741 7.291,-11.5748 13.8671,-11.5508 1.5866,-0.0284 3.1701,0.2202 4.6758,0.7109 5.9877,-4.8054 21.9279,-20.5699 65.6992,-64.49217 l 66.6543,-66.88671 v -10.20917 -10.20703 l -0.1074,-0.0957 c -6.0791,-1.58984 -10.7803,-7.52632 -10.7187,-13.85352 -0.2103,-7.46298 6.3665,-14.34824 13.832,-14.47656 1.1734,-0.0244 2.3532,0.065 3.502,0.31055 2.3451,0.43739 4.5222,1.52775 6.3281,3.06054 1.577,1.25133 2.8491,2.92402 3.748,4.90821 0.0212,0.0454 0.0497,0.0872 0.0703,0.13281 0.0828,0.17157 0.1615,0.34491 0.2364,0.51953 0.7102,1.6563 1.0651,3.44333 1.0879,5.23633 0.0141,0.29675 0.0214,0.59634 0.0214,0.90039 0,3.15893 -0.4651,4.77086 -2.2343,7.01172 -0.3944,0.62336 -0.8393,1.21539 -1.334,1.76758 -1.3264,1.53606 -2.9877,2.75497 -4.8223,3.59765 -0.4725,1.36367 -0.6094,4.73383 -0.6094,11.93945 v 12.73243 L 780.7264,754.73046 750.4588,785 h 11.0234 11.0235 l 33.2441,-33.25586 33.2441,-33.25586 v -21.62891 -21.63086 l -2.4785,-1.62305 c -1.481,-0.97039 -2.6489,-2.16875 -3.5117,-3.60937 -1.7512,-2.39397 -2.8028,-5.2955 -2.7969,-8.2793 -0.0771,-2.26688 0.4719,-4.48115 1.4844,-6.47265 v -0.002 l 0.1133,-1.24023 -12.4043,-11.08789 -12.4063,-11.08594 V 527.0625 422.29882 l -17.25,-15.60937 c -9.4875,-8.5854 -23.8929,-22.04071 -32.0136,-29.90039 L 742.9646,362.5 l 0.0157,-22.79297 c 0.007,-11.35825 -0.0154,-17.09736 -0.3223,-20.28907 -3.7441,-1.35879 -6.6051,-5.0388 -6.8672,-9.05078 -0.2642,-2.56152 0.6071,-5.08751 2.168,-7.08593 -1.5444,-2.15193 -4.5515,-5.39762 -10.207,-11.46094 l -12.084,-12.95508 -0.2813,-13.54492 c -0.1312,-6.28476 -0.3314,-10.033 -0.7265,-12.31445 -3.6528,-1.48821 -6.3634,-5.20582 -6.5293,-9.1836 -0.3923,-5.44756 4.2714,-10.62279 9.7109,-10.8789 1.9733,-0.10607 3.9747,0.32302 5.7012,1.29296 4.1026,2.14636 6.2813,7.27318 5.0429,11.72266 -0.6437,2.77406 -2.5786,5.09254 -5.0371,6.45703 -0.352,2.17633 -0.4843,5.60809 -0.4843,11.08399 l 0.01,12 12.0801,13.25 c 4.0105,4.39864 7.6461,8.11068 10.2148,10.47656 0.0326,-0.002 0.0651,-0.004 0.0977,-0.006 1.8661,-0.1015 3.75,0.2773 5.4121,1.13672 4.3133,2.06238 6.6428,7.38509 5.3281,11.96289 -0.6415,2.6177 -2.429,4.82204 -4.7148,6.18945 -0.4483,2.61027 -0.4922,7.74938 -0.4922,19.44336 v 20.64453 l 11.2578,10.95117 c 6.1921,6.02265 12.7171,12.27132 14.5,13.88672 l 3.2422,2.9375 v -75.53711 -75.53711 l -5.25,-3.27148 C 744.1821,212.98813 513.848,73.27144 512.0919,72.70298 c -0.3461,-0.11202 -16.1444,9.20777 -35.1094,20.71094 -18.965,11.50316 -49.3324,29.90073 -67.4824,40.88281 -32.0037,19.3646 -88.0884,53.59129 -129,78.72656 -11,6.75818 -23.4776,14.35634 -27.7266,16.88282 l -7.7246,4.59375 -0.0254,75.98632 -0.0253,75.98633 14,-13.97265 14,-13.97461 v -20.35547 c 0,-12.29356 -0.0629,-17.29111 -0.6211,-19.9336 -3.3069,-1.63627 -5.6997,-5.11434 -5.8789,-8.83398 -0.4296,-5.52188 4.3533,-10.79381 9.8828,-10.93555 1.1102,-0.0334 2.2295,0.0896 3.3007,0.38477 2.424,-2.17679 5.7617,-5.64 10.0665,-10.4375 l 11.25,-12.53906 v -11.9043 c 0,-4.80075 -0.1165,-8.11866 -0.4141,-10.5625 -3.3688,-1.62774 -5.8025,-5.16874 -5.9609,-8.94141 -0.3909,-5.46045 4.3011,-10.65046 9.7597,-10.86719 1.951,-0.10184 3.925,0.3234 5.6309,1.28321 4.3458,2.23585 6.5075,7.83429 4.8535,12.41992 -0.8364,2.71098 -2.9142,4.88731 -5.4492,6.08203 -0.5108,2.21885 -0.5656,5.44436 -0.4785,12.19922 l 0.1582,12.17969 -4.211,4.86914 c -2.3152,2.677 -7.8306,8.8188 -12.2578,13.64844 -3.4913,3.80873 -5.4767,6.04541 -6.5723,7.71093 1.2377,2.34749 1.6201,5.15276 0.8301,7.71485 -0.7104,2.77454 -2.7126,5.05372 -5.2187,6.35937 -0.6149,2.7137 -0.668,8.02913 -0.668,22.10352 v 22.35351 l -15.25,15.07617 c -13.3143,13.16292 -30.6547,29.38642 -44.5137,41.64649 l -4.2363,3.74805 v 104.44726 104.44727 l -4.25,3.92187 c -2.3375,2.1569 -7.8329,7.11659 -12.2109,11.02149 l -6.2871,5.60937 c 2.1312,3.91884 2.6962,8.70308 1.3007,12.96875 -1.5229,4.97688 -5.6673,8.89257 -10.5527,10.53711 v 20.82031 21.74219 l 33.2559,33.24414 33.2539,33.2461 h 11.3379 11.3359 l -30.0801,-30.25 -30.0781,-30.25 -0.0137,-12.22461 -0.0117,-11.89453 c -5.8832,-1.68585 -10.368,-7.51988 -10.3769,-13.68165 -0.25,-7.46419 6.2878,-14.39408 13.7597,-14.55078 2.2011,-0.0767 4.4291,0.32005 6.4395,1.22852 6.4041,2.5956 10.0432,10.34663 8.1035,16.94922 -1.1062,4.50018 -4.6765,8.11242 -8.9649,9.71875 l -0.9609,0.91992 v 9.80664 9.80664 l 66.541,67.10938 65.6153,66.17968 h 0.002 c 1.841,-0.9572 3.882,-1.5119 5.9922,-1.5234 1.1659,-0.0267 2.335,0.0795 3.4746,0.3281 4.4929,0.9095 8.3751,4.1529 10.1719,8.3555 1.9684,4.3974 1.4907,9.7599 -1.2344,13.7343 -3.0718,4.6429 -8.9834,7.1585 -14.4609,6.168 -6.6821,-1.0614 -11.987,-7.433 -11.9161,-14.1816 -0.054,-2.5023 0.6533,-4.9389 1.8985,-7.0743 -2.6468,-3.6806 -10.399,-11.4611 -31.334,-32.3632 l -33.2422,-33.18949 -15.6015,0.58398 c -8.5817,0.3218 -16.6987,0.31061 -18.0372,-0.0254 -1.4223,-0.3569 -17.4814,-15.97573 -38.6464,-37.58593 L 175.008,720.11899 v -22.58204 -21.49804 c -2.4983,-0.79171 -4.8001,-2.19194 -6.6328,-4.07813 -3.5106,-3.4841 -5.3933,-8.57518 -4.7754,-13.50586 0.8671,-7.73868 7.887,-14.36917 15.7305,-14.4707 3.2968,-0.10189 6.6178,0.79972 9.4043,2.56055 l 8.9609,-8.39649 10.3887,-9.73828 -0.0547,-47.82617 -0.0566,-47.82617 -2.7227,-2.12891 c -1.4974,-1.1711 -6.0585,-5.03378 -10.1367,-8.58398 l -7.416,-6.45508 0.6152,-29.64844 0.6152,-29.64648 -30.9589,-29.22071 -30.959,-29.22265 v -31.54492 -30.82422 c -4.476,-1.86111 -7.7246,-6.49082 -7.7246,-11.38282 -0.1947,-6.40924 5.4146,-12.36287 11.8339,-12.50585 1.2896,-0.039 2.5876,0.095 3.8321,0.43945 4.1054,1.01862 7.4138,4.39112 8.6074,8.41406 1.4389,4.42654 0.0123,9.59842 -3.4941,12.66016 -1.4343,1.32426 -3.1848,2.28195 -5.0547,2.81054 v 27.92579 29.68945 l 10.7656,10.73242 c 5.9215,5.90312 10.984,10.73428 11.25,10.73438 0.2664,9e-5 0.2594,-33.21616 -0.0156,-73.8125 l -0.5,-73.67579 c -2.4504,-0.82377 -4.6997,-2.24492 -6.4922,-4.11718 -3.3181,-3.35539 -5.1323,-8.15595 -4.7031,-12.8711 0.6184,-7.88833 7.6632,-14.80592 15.6289,-14.97656 2.3082,-0.0676 4.6403,0.29848 6.7832,1.17188 7.2997,2.65388 11.7462,11.14161 9.9902,18.66796 -1.1171,5.92669 -5.9707,10.72693 -11.6934,12.35938 l -0.0117,77.34961 -0.01,78.5957 10.623,9.9043 c 5.8426,5.44701 12.8488,11.98281 15.5684,14.52539 l 4.9453,4.62305 -0.2207,29.29296 -0.2188,29.29297 4.4024,3.85547 c 8.2403,7.2198 7.4661,11.61232 7.75,-44.00976 l 0.2539,-49.67578 -13.3008,-12.03907 -13.3027,-12.03906 -0.2774,-36.46094 c -0.1533,-20.05394 -0.0446,-37.42771 0.2422,-38.60742 0.2867,-1.17971 3.4503,-4.52 7.0293,-7.42383 l 6.5059,-5.27929 v -53.18555 -53.18555 l 35.1113,-22.89062 33.9883,-22.15821 c -0.5578,-1.49162 -0.8659,-3.07387 -0.8692,-4.67968 -0.2629,-7.45651 6.2509,-14.39596 13.7149,-14.57618 2.3419,-0.0852 4.7168,0.36017 6.83,1.38477 6.2969,2.74855 9.7401,10.52456 7.6797,17.05273 -1.7633,6.62737 -8.8763,11.21099 -15.6367,10.23047 -2.0951,-0.21498 -4.074,-0.95919 -5.8164,-2.08398 -3.9902,1.83607 -12.1558,7.15184 -32.8418,20.66016 l -34.1211,22.28125 -0.0312,53 -0.0332,53 -6.4883,5.30859 -6.4863,5.31055 v 34.21484 34.21484 l 7.25,6.99219 c 3.9875,3.84536 8.9091,8.50618 10.9355,10.35742 l 3.6836,3.36524 9.8164,-9.16797 9.8145,-9.16797 0.3418,-81.71484 c 0.3402,-81.52414 0.346,-81.72229 2.5,-85.64844 2.5444,-4.6379 5.1236,-6.33062 75.1582,-49.3125 C 427.1524,107.66057 510.6355,56.99985 511.9589,56.99985 Z m 1.2851,54.00781 c 9.2812,0.19345 18.066,4.08405 25.3692,11.56445 7.858,8.0486 11.2715,19.37421 11.3555,37.67774 L 550,167 h -6 -6 v -8.31836 c 0,-15.03851 -5.1747,-26.44625 -14.3945,-31.73438 -12.4779,-7.1568 -29.5055,-0.79915 -35.6485,13.31055 -1.7522,4.02447 -2.3903,7.73846 -2.748,15.99219 L 484.7422,167 H 479.3711 474 v -10.45118 c 0,-20.59047 4.9855,-31.99602 17.1504,-39.23046 7.3566,-4.3749 14.875,-6.46102 22.0937,-6.31055 z m 231.2149,33.9707 c -0.2007,-0.006 -0.4011,-0.003 -0.6016,0.0117 -3.6013,0.13098 -6.6344,3.81576 -5.914,7.38477 0.4374,2.77862 2.8267,5.17398 5.6797,5.35351 2.7136,0.30939 5.498,-1.30611 6.5175,-3.85156 1.1165,-2.52773 0.3533,-5.70034 -1.8125,-7.42383 -1.0754,-0.90474 -2.4644,-1.43328 -3.8691,-1.47461 z m -465.5801,1.98633 c -0.2006,-0.006 -0.4027,-0.002 -0.6035,0.0137 -3.6107,0.10416 -6.6676,3.80355 -5.9375,7.37891 0.4204,2.72773 2.7257,5.08699 5.5137,5.33984 2.7839,0.38415 5.7019,-1.26644 6.7031,-3.91406 1.0773,-2.50428 0.3215,-5.62453 -1.8203,-7.32422 -1.0742,-0.90294 -2.4512,-1.45364 -3.8555,-1.49414 z m 316.125,12.16211 c 1.4157,-0.0326 2.7021,0.38194 3.1211,1.04297 1.4054,2.21684 1.0932,83.20953 -0.3262,84.6289 -1.5991,1.59911 -4.2878,1.5205 -5.6875,-0.16601 -0.8144,-0.98119 -1.0606,-13.16098 -0.873,-43.25 L 591.5,159.5 l 2.8906,-0.33008 c 0.2053,-0.0234 0.4111,-0.0383 0.6133,-0.043 z M 425.5,159.5 h 3.5 3.5 v 42.5 42.5 l -14.1328,0.27539 c -12.2281,0.23945 -14.2159,0.0597 -14.75,-1.33203 -0.7983,-2.08122 -0.8093,-38.7848 -0.0117,-40.86329 C 403.958,201.66143 405.3821,201 407,201 c 1.618,0 3.04,0.66143 3.3926,1.58007 0.3338,0.86998 0.6074,9.19498 0.6074,18.5 V 238 h 6.9883 6.9883 l 0.2617,-39.25 z m 85.668,13.5 c 24.9124,0 39.7035,0.37782 41.5156,1.0625 1.5484,0.58499 4.0927,2.27249 5.6543,3.75 5.6038,5.30232 5.6627,5.68469 5.6387,36.88671 -0.0197,25.85159 -0.2095,29.21706 -1.8692,32.8711 -2.3439,5.1606 -8.1053,9.9382 -13.6719,11.33984 -2.7025,0.68058 -16.4259,1.06369 -36.6289,1.02149 -40.09,-0.0838 -42.097,-0.49449 -49.1191,-10.04297 L 459.5,245.55468 v -30.68554 -30.6836 l 3.0234,-3.73828 C 468.6639,172.86053 467.7588,173 511.168,173 Z m 127.2812,9.08984 c 4.5862,0.20304 4.5744,4.74492 4.3125,40.00391 L 642.5,257.5 l -3.25,0.3125 -3.25,0.3125 v -32.94532 c 0,-32.43226 -0.0334,-32.95574 -2.0625,-33.48632 -1.75,-0.45709 -2.014,-1.19752 -1.75,-4.86719 0.3021,-4.20048 0.4206,-4.33506 4.002,-4.63281 0.8554,-0.0711 1.6045,-0.13253 2.2597,-0.10352 z m -251.082,0.0449 c 0.2585,0.003 0.5225,0.0194 0.7891,0.0449 3.1701,0.30373 3.3591,0.54334 3.6542,4.64649 0.2636,3.66125 -0.004,4.41023 -1.7363,4.86328 -2.0041,0.52406 -2.0526,1.23243 -2.3105,33.17187 l -0.2637,32.63868 -2.5391,0.29492 c -1.3956,0.16275 -2.8581,-0.0241 -3.25,-0.41602 C 381.319,256.98694 381,240.61133 381,220.98824 c 0,-33.82484 0.0989,-35.76861 1.9063,-37.4043 1.064,-0.96296 2.6516,-1.47367 4.4609,-1.44922 z m 124.9805,14.86719 c -6.1307,0.008 -13.3338,7.215 -13.3438,13.3457 -0.004,3.33489 2.769,9.65235 4.2383,9.65235 0.9698,0 0.5948,7.94019 -0.8867,18.75 l -0.584,4.25 h 10.7226 c 10.612,0 10.7166,-0.0231 10.1836,-2.25 -1.2974,-5.42042 -1.9137,-20.75 -0.8339,-20.75 1.7703,0 4.1523,-5.57371 4.1523,-9.70118 -0.007,-7.15023 -6.326,-13.30687 -13.6484,-13.29687 z M 613.5,201.49998 h 3 3 l 0.2695,20.87109 c 0.1887,14.55249 -0.0742,21.2897 -0.8711,22.25 -0.6287,0.75755 -1.708,1.37891 -2.3984,1.37891 -3.1647,0 -3.5426,-2.72482 -3.2715,-23.62891 z m -264.918,21.5 c 12.6819,0 14.2275,0.18525 14.6016,1.75 1.1715,4.89979 0.3877,5.25 -11.7578,5.25 H 340 v 19.79687 19.79688 l -4,3.90625 -4,3.90429 v -26.00195 c 0,-18.89119 0.3274,-26.33133 1.1992,-27.20313 0.8205,-0.82053 5.6847,-1.19921 15.3828,-1.19921 z m 326.5235,0.22265 c 11.5487,-0.21816 14.8497,0.0171 15.7676,1.12305 0.8306,1.00118 1.0835,8.75228 0.8925,27.27539 l -0.2656,25.87891 -3.25,-3.62305 -3.25,-3.62109 v -20.09766 -20.09766 l -12.25,-0.28125 -12.25,-0.27929 v -3 -3 z m 188.0234,21.35547 c -0.202,-0.01 -0.4049,-0.009 -0.6074,0.002 -3.5928,0.0642 -6.6848,3.6728 -6.0469,7.2461 0.3701,2.77977 2.6918,5.21916 5.5254,5.48047 2.7496,0.38148 5.6429,-1.21492 6.6777,-3.81446 1.1094,-2.4828 0.4101,-5.60442 -1.6894,-7.3457 -1.0634,-0.93615 -2.4451,-1.50179 -3.8594,-1.56836 z m -701.2441,0.95898 c -0.2072,-0.007 -0.4157,-0.004 -0.6231,0.01 -3.5449,0.15658 -6.5294,3.72614 -5.9101,7.25391 0.3907,2.73965 2.6456,5.17133 5.4511,5.45898 2.7442,0.42048 5.629,-1.14815 6.7246,-3.70703 1.1401,-2.50742 0.4707,-5.69754 -1.6679,-7.46094 -1.102,-0.9486 -2.5244,-1.50284 -3.9746,-1.55469 z m 351.0117,30.89454 c 14.2256,0.083 28.4031,0.88074 37.1035,2.36328 46.5695,7.93531 86.5883,25.45503 120.5605,52.77929 47.8957,38.52241 80.6684,96.06947 90.1387,158.2793 2.3454,15.4093 2.3343,52.67109 -0.0195,68.64649 -7.8852,53.5163 -31.4049,101.4278 -68.668,139.8789 -15.2488,15.7349 -27.391,25.33413 -58.0117,45.86133 -14.025,9.402 -34.5,23.46706 -45.5,31.25586 -11,7.7887 -32.5186,23.01316 -47.8184,33.83199 -15.2999,10.819 -28.3499,19.6292 -29,19.5782 -0.6502,-0.0505 -19.8566,-13.5472 -42.6816,-29.99418 -22.825,-16.44699 -54.8317,-38.88964 -71.125,-49.87304 -36.9007,-24.8752 -49.0121,-34.21086 -64.9199,-50.03906 -20.7537,-20.6498 -32.3541,-36.8323 -45.5176,-63.5 -20.1025,-40.7254 -28.9012,-85.0926 -25.4844,-128.5 3.6777,-46.72204 20.4733,-92.81423 46.7129,-128.19532 41.3527,-55.75911 97.7865,-89.73631 166.834,-100.44531 8.8971,-1.37989 23.1709,-2.01071 37.3965,-1.92773 z m 15.5078,13.44726 c -9.3548,-0.64096 -18.6481,-0.54997 -30.2324,0.11133 -20.7062,1.18204 -30.293,2.66329 -49.1465,7.59766 -74.2039,19.42081 -134.5404,74.63629 -160.5215,146.89843 -4.5347,12.61246 -7.8492,25.66866 -10.6934,42.10938 -3.0244,17.4857 -3.2859,56.73329 -0.4941,74.36719 9.3454,59.0296 38.521,109.84766 84.0449,146.38476 8.7398,7.0145 15.3839,11.71995 48.2246,34.15235 8.0519,5.5 34.2773,24.04318 58.2774,41.20898 24.0002,17.1659 44.1666,31.0314 44.8144,30.8105 0.6477,-0.2208 9.6477,-6.4159 20,-13.76558 10.3522,-7.3498 29.6223,-21.02668 42.8223,-30.39258 13.2,-9.3659 33.45,-23.47592 45,-31.35742 11.55,-7.8815 24.15,-16.60381 28,-19.38281 48.9046,-35.2997 82.6077,-85.27949 94.8262,-140.62109 4.6406,-21.0185 5.1326,-26.243 5.0996,-54 -0.0345,-28.7743 -1.458,-41.32247 -7.0391,-62 -5.6968,-21.10575 -17.5613,-47.3185 -30.0898,-66.47852 C 676.618,342.48668 622.1938,306.26199 559,294.15623 547.1752,291.891 537.7591,290.51985 528.4043,289.87888 Z m -23.627,13.39258 c 24.8379,-0.57131 34.2261,0.24064 55.0489,4.76172 34.086,7.40082 66.059,22.41496 91.584,43.00586 39.2631,31.67337 69.4863,81.08861 79.4863,129.95898 7.1772,35.075 4.9259,76.0573 -6.043,110 -10.4625,32.376 -30.7186,65.83196 -53.2656,87.97266 l -6.5898,6.4707 v -13.4707 -13.47266 l 13.5371,-14.39258 13.539,-14.39453 -0.123,-18.48437 -0.1211,-18.48438 12.584,-13.36718 12.584,-13.36914 0.0312,-10.75391 c 0.0147,-4.96873 0.1814,-8.15815 0.5723,-10.19141 1.9807,-1.15964 3.5068,-3.10631 3.9961,-5.37695 0.9307,-3.78261 -1.1746,-8.04293 -4.7813,-9.54688 -1.1509,-0.53122 -2.4262,-0.75624 -3.6894,-0.73632 -4.6918,0.0434 -8.7258,4.68663 -8.0684,9.34179 0.2485,2.36351 1.6129,4.51395 3.5195,5.89258 0.2544,1.90795 0.4185,4.89222 0.418,8.17383 v 9.68945 l -12.5,13.42578 -12.498,13.42383 -0.045,19.07617 -0.0449,19.07422 -13.4277,14 -13.4278,14 -0.0273,18.72852 -0.0273,18.72656 -2.5606,1.67774 c -2.4034,1.575 -2.7902,1.57275 -6.25,-0.0566 -2.0284,-0.9553 -5.827,-3.09716 -8.4394,-4.75976 l -4.75,-3.02344 v -17.3125 -17.3125 l 14,-15.02539 14,-15.02734 v -19.52149 c 0,-11.60758 0.0436,-16.35853 0.5429,-18.53711 1.1158,-0.4633 2.1613,-1.09306 3.0879,-1.87695 3.5122,-2.78076 5.3073,-7.56374 4.3652,-11.95898 -0.145,-0.7283 -0.3574,-1.44232 -0.6328,-2.13086 0.9638,-2.0002 3.4014,-4.77277 9.0547,-10.89453 l 9.877,-10.69336 -0.2012,-18.53907 -0.1953,-18.00976 c 2.5138,-0.5063 4.8963,-1.67035 6.7969,-3.40821 3.9313,-3.41822 5.7428,-9.08291 4.4062,-14.13476 -1.3009,-5.25402 -5.7054,-9.6857 -11.0762,-10.67774 -1.1037,-0.2321 -2.2362,-0.32555 -3.3632,-0.30664 -7.3208,0.06 -13.7748,6.62358 -13.9649,13.89454 -0.3095,6.35063 4.1891,12.4603 10.2305,14.30273 0.0242,0.008 0.048,0.016 0.0723,0.0234 v 16.36523 16.50977 l -8.9961,9.64843 c -5.3135,5.69872 -7.5086,8.03162 -9.3789,8.97266 -0.7178,-0.30206 -1.4677,-0.53088 -2.2422,-0.67773 -1.0277,-0.2182 -2.0832,-0.29961 -3.1328,-0.26758 -6.2799,0.13557 -11.7138,5.8295 -11.8497,12.05469 -0.1983,4.98698 3.0321,9.77604 7.5723,11.73632 0.2772,0.12597 0.5584,0.23962 0.8438,0.3418 l 0.3281,17.05664 0.3398,17.70313 -13.9922,15.13281 -13.9921,15.13086 -0.5,16.57422 -0.5,16.57422 -4.1973,-8.5 c -5.6501,-11.438 -8.3942,-22.15813 -9.0352,-35.29493 -0.8189,-16.7841 1.4913,-28.51249 14.7696,-74.99609 11.1084,-38.8873 13.9515,-53.10019 14.666,-73.30859 0.4477,-12.66502 0.2012,-18.29933 -1.1543,-26.40625 -2.9471,-17.62496 -11.4089,-38.76343 -21.0821,-52.66993 l -4.2949,-6.17578 8.1641,3.54493 c 17.0051,7.38499 30.8666,10.23646 40.2754,8.2832 l 5.5976,-1.16211 -8.8535,-2.96875 c -18.7769,-6.2966 -33.7849,-14.63969 -44.6972,-24.84766 -6.767,-6.33019 -8.9225,-9.74782 -3.8868,-6.16211 7.6349,5.43651 23.3994,6.76983 31.2286,2.64063 l 3.5,-1.84766 -5.5,-1.13867 c -12.9511,-2.68492 -24.6989,-8.47567 -39.0606,-19.25195 -21.6215,-16.22367 -38.9167,-24.66075 -57.0547,-27.83399 -12.8293,-2.24449 -42.6531,-1.43408 -54.4433,1.48047 -34.3148,8.48264 -65.1358,33.17591 -76.6153,61.38086 -3.1984,7.85848 -5.8261,20.62916 -5.8261,28.32227 v 5.36718 l -6.75,5.60938 c -9.1076,7.5691 -20.7897,15.6848 -46.8477,32.53906 -36.0948,23.34597 -37.7044,24.83029 -42.3359,39.05469 -1.8224,5.5973 -4.3109,20.8418 -3.4024,20.8418 0.1542,0 2.7972,-1.11547 5.875,-2.47657 19.0538,-8.4265 56.6345,-15.08138 99.461,-17.61328 28.055,-1.6586 41.357,-0.26482 57.7441,6.04688 8.8488,3.4083 22.4262,7.00434 26.5312,7.02734 4.0066,0.0222 5.0609,3.52603 4.3653,14.51563 -0.6564,10.3697 -3.6574,20.14752 -9.5196,31.01562 -3.8413,7.1214 -6.9525,11.55574 -32.6035,46.46094 -7.0638,9.6122 -16.9641,23.65348 -22,31.20508 l -9.1562,13.73046 -6.9297,-6.98242 -6.9316,-6.98437 -0.3497,-20.33008 -0.3496,-20.33203 5.9375,-6.89258 c 3.266,-3.7907 6.6853,-7.50877 7.5996,-8.26367 1.3441,-1.1098 1.6622,-3.25614 1.6622,-11.21485 0,-4.96906 0.0666,-7.50163 0.4453,-8.93554 0.7987,-0.29731 1.566,-0.67966 2.2832,-1.15039 3.9804,-2.43483 6.3738,-7.25043 5.7519,-11.89649 -0.4428,-3.92317 -2.8357,-7.58643 -6.3457,-9.43554 -1.9383,-1.07511 -4.1666,-1.63787 -6.3847,-1.56055 -6.2399,0.0445 -11.7087,5.60133 -11.9922,11.77148 -0.2919,4.45906 2.1739,8.84936 5.9453,11.17188 0.4653,0.30123 0.9515,0.5649 1.4531,0.79297 0.8153,1.44904 0.8266,3.32637 0.7988,8.04883 l -0.0468,7.78125 -7.4375,8 -7.4375,8 0.4296,23.92578 0.4297,23.92578 8.6387,8.67773 8.6367,8.67774 -4.9453,9.84961 -4.9453,9.84961 L 405.1387,674.54491 394,663.68163 v -40.72656 -39.71289 c 4.1892,-1.56954 7.5487,-5.43009 8.0938,-9.93359 0.9289,-5.89119 -3.0845,-12.09673 -8.8555,-13.63477 -1.2595,-0.3708 -2.5776,-0.52234 -3.8887,-0.49609 -6.6976,0.0723 -12.4847,6.49915 -11.9394,13.1582 0.2298,4.99609 3.913,9.49161 8.5898,11.0586 v 41.32812 41.75 l 13.2129,13.24024 13.2129,13.24023 -1.2442,4.27344 c -0.684,2.3504 -2.1604,8.54091 -3.2812,13.75781 h 0.004 c -1.1208,5.2169 -2.1187,9.55563 -2.2188,9.64063 -0.5273,0.452 -21.997,-14.0221 -28.5527,-19.25 l -6.1133,-4.87696 -0.01,-26.51172 -0.01,-26.51172 -15.5,-15.47656 -15.5,-15.47461 0.0371,-12.51172 0.0352,-11.50195 c 5.341,-1.49071 9.9343,-5.71422 11.4863,-11.0957 2.18,-6.91664 -0.9129,-15.12789 -7.2266,-18.75391 -2.6486,-1.62482 -5.7676,-2.46137 -8.873,-2.40234 -7.4744,0.0232 -14.2381,5.96344 -15.7149,13.20508 -0.9282,4.41785 0.1504,9.1802 2.8633,12.78515 2.2659,3.11826 5.6359,5.43161 9.3672,6.37305 l 0.0117,12.86719 0.0118,13.98828 15.5195,15.54297 15.5215,15.54297 -0.2715,21.46875 -0.2695,21.46679 -9.4356,-9.5 c -35.0774,-35.3191 -57.3702,-81.9342 -63.1289,-132 -1.9142,-16.6422 -0.7277,-46.40971 2.5,-62.69531 6.1917,-31.24128 13.9876,-51.18252 30.418,-77.80469 22.4408,-36.36077 56.3507,-66.68811 94.1465,-84.20117 14.8517,-6.88179 31.7394,-12.34098 50.5,-16.32617 13.5264,-2.87339 17.1889,-3.23712 37.2792,-3.69922 z M 488.5,410.64646 c 8.5274,-0.0352 13.7093,1.71762 20,6.76172 2.6843,2.15229 2.9899,2.96735 2.9199,7.74805 -0.0473,3.21475 -0.9862,7.41973 -2.3574,10.55664 -2.5484,5.83029 -10.1722,13.59759 -15.5527,15.8457 -4.2367,1.77018 -14.7501,1.80265 -19.625,0.0605 -12.9565,-4.63016 -17.1871,-14.60138 -11.25,-26.51563 4.6721,-9.37556 13.6735,-14.40663 25.8652,-14.45703 z m -253.0059,44.45508 c 1.9244,-0.0904 3.8727,0.25223 5.6368,1.03125 5.5024,2.20918 8.7034,8.81644 7.0664,14.50586 -0.952,4.09023 -4.2677,7.3434 -8.1992,8.64648 v 53.67188 54.75781 l 6,5.54492 6,5.54297 v 32.84961 l 0.01,32.84766 28.2461,28.50195 c 15.535,15.6759 37.8086,38.19943 49.4961,50.05273 l 21.25,21.55078 v 8.45118 8.44922 l 57,56.99412 57,56.9922 0.1172,-14.9961 c 0.0654,-8.2482 0.178,-15.931 0.25,-17.0723 0.093,-1.4729 -6.8738,-8.9474 -24.0039,-25.75 l -23.1602,-22.7168 c -2.1185,0.97 -4.4969,1.3684 -6.8125,1.0215 -5.9448,-0.6682 -10.7376,-6.2725 -10.7226,-12.21091 -0.1773,-6.41203 5.4494,-12.32143 11.8593,-12.47461 2.9475,-0.0936 5.9202,0.83254 8.2305,2.67969 4.0795,3.13544 5.8246,8.96874 4.0215,13.80473 -0.157,0.4907 -0.3481,0.9672 -0.5703,1.4257 2.2025,1.944 13.243,12.752 25.8887,25.3555 l 24.9023,24.8184 v 23.082 23.082 l 9,8.959 9,8.957 v -35.248 -35.25 l 4,2.041 4,2.0391 v 36.8965 36.8945 l 5.75,5.5391 5.75,5.539 5.25,-5.1699 5.25,-5.1699 v -36.79888 -36.7988 l 3.25,-1.9824 c 1.7875,-1.0898 3.5875,-1.9844 4,-1.9844 0.4125,-0.002 0.75,15.4 0.75,34.2266 v 34.2285 l 9.4258,-9.3867 9.4277,-9.3887 -0.0508,-22.5605 -0.0488,-22.5625 26.0977,-25.5293 c 15.2104,-14.8799 21.5662,-21.1464 24.1992,-24.5762 -0.7671,-2.3325 -0.8627,-4.878 -0.1172,-7.24415 1.5275,-5.09307 6.5304,-9.04883 11.916,-8.91797 1.8294,0.0155 3.6646,0.41254 5.3106,1.21875 5.1762,2.29494 8.1111,8.50748 6.7734,13.97857 -0.7904,3.5928 -3.3098,6.7057 -6.6133,8.3027 -3.2275,1.6587 -7.1911,1.7105 -10.4902,0.2539 -3.3484,2.3823 -9.9204,8.6427 -24.2774,22.8242 -16.3567,16.1569 -24.4845,24.8643 -24.1132,25.832 0.3081,0.8028 0.5605,8.0313 0.5605,16.0625 v 14.6016 l 56.75,-56.4336 56.75,-56.43358 0.5,-9.23047 0.5,-9.22852 26.0371,-26.27148 C 713.8588,723.32063 736.0149,700.925 748.7718,688 l 23.1933,-23.5 0.0176,-32.53125 0.0176,-32.53125 6,-5.9375 6,-5.9375 v -54.20508 -52.39649 c -4.9602,-1.5154 -8.7209,-6.41774 -8.7754,-11.64062 -0.2507,-6.39993 5.2795,-12.391 11.6856,-12.62305 1.5664,-0.064 3.1505,0.12977 4.6367,0.63672 4.212,1.30207 7.4188,5.09399 8.2539,9.38867 0.9352,4.41846 -0.8407,9.26199 -4.4219,12.01953 -1.0152,0.82536 -2.1611,1.47558 -3.3789,1.93555 v 53.9082 55.97657 l -6,5.9375 -6,5.9375 -0.0391,33.03125 -0.0371,33.03125 -49.5234,49.8457 -49.5215,49.84766 0.3106,8.42773 0.3105,8.42773 -36.623,36.47466 c -20.1423,20.0616 -36.3423,36.505 -36,36.541 0.3424,0.036 4.673,0.016 9.623,-0.045 l 9,-0.1093 61.6543,-61.60745 c 39.3101,-39.27949 57.2591,-57.69148 61.3145,-62.96875 -0.003,-0.10762 -0.005,-0.21631 -0.004,-0.32422 -0.0362,-4.46107 4.0394,-8.4847 8.5157,-8.3125 1.3357,0.024 2.6648,0.36929 3.8398,1.00586 3.4529,1.73617 5.2897,6.06607 4.1152,9.75 -1.0268,3.90878 -5.2192,6.56869 -9.1914,5.96094 -0.2397,-0.0251 -0.4757,-0.0612 -0.7089,-0.10938 -4.8356,3.26943 -18.5089,16.64586 -63.8008,61.86328 l -62.7344,62.63082 -15.457,0.6797 -15.4551,0.6797 -6.5449,5.8555 c -3.5992,3.2204 -23.1919,22.5341 -43.5391,42.9199 -20.3472,20.3857 -37.4365,37.0664 -37.9746,37.0664 -0.5381,0 -20.3463,-19.35 -44.0195,-43 l -43.043,-43 -11.4844,-0.0742 c -20.7317,-0.1338 -11.3652,7.1249 -82.7988,-64.17578 -44.6534,-44.57033 -59.2761,-58.82571 -63.9609,-61.99805 -0.8857,0.19796 -1.8023,0.24966 -2.711,0.13281 -3.9647,-0.31299 -7.2168,-3.8872 -7.4551,-7.80664 -0.4173,-4.55012 3.5801,-8.90333 8.1407,-8.92773 1.5616,-0.0424 3.1331,0.36513 4.4746,1.16601 2.4638,1.36498 4.0197,4.06916 4.166,6.8457 2.0826,3.8243 15.8534,18.02951 61.9902,64.14454 l 61.67,61.64064 10,0.6426 10,0.6406 -37.25,-37.3965 -37.25,-37.39648 v -8.97266 -8.97266 l -49,-48.99218 -49,-48.99219 v -32.91992 -32.91797 l -6,-6.25 -6,-6.24805 v -56.58594 c 0,-36.43017 -0.0239,-49.44975 -0.5977,-54.64648 -4.3475,-1.86704 -7.5286,-6.3821 -7.5996,-11.16211 -0.2911,-6.42355 5.2679,-12.44604 11.6933,-12.67578 z m -98.246,5.54883 c 0.0648,-0.003 0.1153,0.005 0.1484,0.0234 0.6068,0.33576 9.091,5.54634 18.8535,11.58008 l 17.75,10.9707 -0.0156,20.13672 c -0.008,11.0756 -0.3459,20.63078 -0.75,21.23438 -0.677,1.0112 -20.5923,13.57546 -31.3223,19.75976 h -0.002 c -2.5233,1.4544 -5.2233,2.59993 -6,2.54493 -1.9436,-0.1369 -33.826,-20.15418 -34.9629,-21.95118 -0.5043,-0.7972 -0.9236,-10.54511 -0.9336,-21.66211 l -0.0137,-20.21289 6.0508,-4.11132 c 12.2183,-8.29734 29.1851,-18.23279 31.1973,-18.3125 z m 749.9101,0.34961 c 1.0767,0 9.5826,4.76666 18.9004,10.59375 L 923,482.18943 v 21.25 c 0,18.9975 -0.1855,21.41031 -1.75,22.75781 -0.9625,0.8291 -8.8351,5.8481 -17.4941,11.1543 -8.659,5.3062 -16.309,9.61236 -17,9.56836 -1.2306,-0.0783 -33.3021,-19.47048 -36.2559,-21.92188 -1.2402,-1.0293 -1.5,-4.65699 -1.5,-20.96679 0,-17.5312 0.1945,-19.89357 1.75,-21.25977 3.8879,-3.41458 34.5861,-21.77148 36.4082,-21.77148 z m -650.7402,0.0898 c -0.2056,-0.007 -0.4112,-0.003 -0.6172,0.0117 -3.5701,0.15205 -6.5909,3.76747 -5.9082,7.32031 0.403,2.81548 2.8196,5.2428 5.6972,5.42773 2.8231,0.3057 5.7389,-1.4602 6.629,-4.18554 0.9325,-2.4367 0.1716,-5.37147 -1.8555,-7.02344 -1.0948,-0.93543 -2.5061,-1.50153 -3.9453,-1.55078 z m 551.4121,1.5957 c -0.2052,-0.007 -0.4101,-0.003 -0.6153,0.0117 -3.537,0.15766 -6.5243,3.71168 -5.9101,7.23633 0.3783,2.82653 2.7754,5.30696 5.6699,5.5 2.805,0.34124 5.6993,-1.39925 6.6328,-4.08203 0.988,-2.46241 0.2202,-5.45634 -1.834,-7.13672 -1.0924,-0.93514 -2.5072,-1.48334 -3.9433,-1.5293 z m -388.1856,3.66602 c 0.0229,-8.3e-4 0.0419,0.004 0.0528,0.0117 l 0.002,0.002 c 0.9032,0.90328 -2.6187,7.2889 -5.5293,10.02539 -2.367,2.22529 -4.2977,3.00148 -8.373,3.36328 -4.7324,0.4201 -5.137,0.30905 -3.7969,-1.04883 2.3826,-2.41405 16.5582,-12.31399 17.6445,-12.35351 z m -263.2382,3.64844 c -0.4074,0 -6.9751,3.91009 -14.5958,8.68945 l -13.8574,8.68945 0.2735,16.94727 0.2734,16.94726 14,8.35743 c 7.7,4.59699 14.225,8.33849 14.5,8.3125 0.275,-0.0257 6.575,-3.77754 14,-8.33594 l 13.5,-8.28711 0.2734,-17.03125 0.2715,-17.0293 -13.9492,-8.63086 c -7.672,-4.74669 -14.2819,-8.6289 -14.6894,-8.6289 z m 750.6445,0 c -1.0626,0 -5.8645,2.76276 -19.8008,11.39257 l -9.25,5.72852 0.0273,16.68945 0.0274,16.68946 14.2226,8.70117 c 7.8221,4.7864 14.3916,8.724 14.5997,8.75 0.2081,0.0261 4.9331,-2.81059 10.5,-6.30469 5.5669,-3.4941 12.0355,-7.32948 14.373,-8.52148 L 916,520.95892 V 504.6347 c 0,-14.2967 -0.2174,-16.51512 -1.75,-17.85742 -2.6357,-2.3086 -26.0924,-16.77734 -27.1992,-16.77734 z m -201.2774,17.42187 c 1.2613,-0.0307 2.5282,0.19057 3.6817,0.70899 3.5432,1.4569 5.6845,5.5493 4.916,9.29101 -0.685,3.81452 -4.2899,6.81359 -8.1621,6.80859 -4.1293,0.12908 -7.927,-3.25226 -8.4336,-7.32226 -0.7279,-4.67442 3.2769,-9.39933 7.998,-9.48633 z m 175.2442,52.34375 15.6875,9.84766 c 8.6278,5.4156 16.9483,10.90755 18.4902,12.20508 L 898,564.17767 v 20.66602 20.66601 l -17.498,10.77539 c -9.6234,5.9262 -18.0609,10.94926 -18.75,11.16406 -2.0018,0.6239 -3.3534,-0.10112 -20.9551,-11.26562 l -16.7012,-10.59375 -0.2988,-14.54492 C 823.633,583.04516 823.725,573.39605 824,569.60345 l 0.5,-6.89648 18.2598,-11.47071 z m -698.8125,0.73047 c 1.2748,-0.0401 9.059,4.32188 19.3379,10.84961 l 17.957,11.4043 0.2676,21.45703 0.2695,21.45898 -8.7617,5.41602 c -4.8195,2.9789 -13.015,8.00547 -18.2109,11.16797 -5.196,3.1625 -9.9235,5.73475 -10.5059,5.71875 -1.0972,-0.0309 -29.9557,-17.45092 -34.8086,-21.01172 L 125,604.93939 v -19.53516 c 0,-10.9813 0.4337,-20.34682 0.9902,-21.38672 0.8658,-1.6178 32.1647,-21.9894 36.1114,-23.5039 0.0274,-0.0105 0.0624,-0.0163 0.1035,-0.0176 z m 0.6777,8.46289 -10.6914,6.67773 c -5.8804,3.6734 -12.6039,7.97896 -14.9414,9.56836 l -4.25,2.89063 v 15.82812 c 0,12.885 0.2789,16.06371 1.5059,17.08204 0.829,0.68799 7.4665,4.97359 14.75,9.52539 h -0.004 c 7.2835,4.5517 13.3667,8.32004 13.5175,8.37304 0.1508,0.0526 6.7883,-4.00708 14.75,-9.02148 l 14.4746,-9.11719 v -16.63281 -16.63281 l -14.5546,-9.27149 z m 698.1543,0.15234 -14.4863,9.19336 -14.4863,9.19532 -0.0332,17.25 c -0.0177,9.4875 0.3062,17.2498 0.7187,17.25 0.4125,10e-5 6.6,3.79082 13.75,8.42382 7.15,4.633 13.2703,8.346 13.6016,8.25 0.3313,-0.0957 7.1938,-4.20741 15.25,-9.13672 L 890,600.57415 V 583.9804 567.38665 l -14.4824,-9.13867 z m -434.1601,1.82227 c 3.2143,-0.1633 6.2984,2.35264 6.625,5.58398 0.5358,3.35779 -2.1183,6.80713 -5.5039,7.14844 -3.1554,0.51267 -6.3727,-1.78593 -7.0626,-4.88086 -1.0152,-3.7017 2.1241,-7.78696 5.9415,-7.85156 z m -91.2266,13.33008 c 2.1392,-0.0677 4.2729,0.77758 5.8418,2.2207 2.8551,2.46664 3.6222,6.97323 1.6933,10.22656 -1.7055,3.21412 -5.6599,5.03378 -9.2011,4.14258 -3.5382,-0.81092 -6.3513,-4.06737 -6.5391,-7.70898 -0.3148,-4.53227 3.6328,-8.88586 8.2051,-8.88086 z m 54.2012,0.91211 c 1.1058,0.003 2.1951,0.32696 3.1484,0.88086 2.5531,1.41733 3.8532,4.69216 2.9063,7.46289 -0.8347,2.7004 -3.5859,4.61568 -6.4082,4.45312 -3.0326,-0.0893 -5.679,-2.61756 -6.0547,-5.60156 -0.5433,-3.66006 2.6976,-7.33148 6.4082,-7.19531 z m 268.9531,1.01562 c 0.928,-0.005 1.8557,0.20104 2.6934,0.60156 2.8528,1.24033 4.4362,4.74038 3.4316,7.69141 -0.7871,2.61909 -3.3652,4.53601 -6.1035,4.50781 -3.103,0.0543 -5.9173,-2.46009 -6.3516,-5.50781 -0.6003,-3.65954 2.6026,-7.40214 6.3301,-7.29297 z m -73.4727,56.41992 c 0.002,-3.1e-4 0.007,-9e-5 0.01,0 0.2951,0.038 0.5553,3.36609 0.9531,11.11524 0.7531,14.6704 3.4738,33.19208 6.3321,43.11328 2.4497,8.5029 6.4203,15.738 14.873,27.0957 4.1996,5.643 7.4778,10.41868 7.2832,10.61328 -0.6667,0.6666 -9.2831,-4.68634 -12.666,-7.86914 -15.449,-14.5353 -22.0279,-45.93648 -17.2168,-82.17968 0.1603,-1.20745 0.3004,-1.87101 0.4316,-1.88868 z m -405.8847,31.38282 c -3.5776,0.18254 -6.564,3.85206 -5.834,7.40234 0.4399,2.75223 2.7969,5.11601 5.6172,5.32617 2.8721,0.36073 5.8265,-1.46958 6.7265,-4.23047 0.994,-2.70743 -0.1251,-5.97169 -2.5742,-7.49414 -1.1578,-0.74761 -2.5624,-1.09472 -3.9355,-1.0039 z m 665.291,1.16796 c -0.1796,-0.004 -0.3597,-0.002 -0.5391,0.01 -3.5793,0.15737 -6.6,3.79837 -5.8965,7.35742 0.421,2.7776 2.7951,5.18139 5.6407,5.38477 2.8776,0.33729 5.8633,-1.49048 6.7187,-4.28906 0.9536,-2.6186 -0.0691,-5.75801 -2.3887,-7.30469 -1.0309,-0.71898 -2.2778,-1.12872 -3.5351,-1.15821 z m -286.8731,19.3379 3.0703,8.45703 c 4.5492,12.5359 11.1771,25.55297 17.4649,34.29297 2.9228,4.06269 5.0368,7.41232 4.8769,7.70703 -7e-4,0.001 -0.003,0.005 -0.004,0.006 -8e-4,8.9e-4 -0.005,0.005 -0.006,0.006 l -0.002,0.002 c -0.007,0.004 -0.0176,0.006 -0.0273,0.006 -0.4061,-0.0121 -2.5383,-0.84175 -4.7383,-1.84375 -10.6986,-4.8725 -18.6621,-20.97485 -20.0586,-40.56055 z m -339.5722,5.64062 c -0.2005,-0.007 -0.4008,-0.003 -0.6016,0.0117 -3.6036,0.0893 -6.6769,3.76437 -5.9687,7.33789 0.4099,2.77056 2.7663,5.1787 5.6035,5.39063 2.7695,0.34735 5.6527,-1.31395 6.6328,-3.95118 1.0563,-2.49437 0.306,-5.58597 -1.8145,-7.2832 -1.0723,-0.90426 -2.4484,-1.45832 -3.8515,-1.50586 z m 586.8222,0.21094 c -3.3809,0.19732 -6.2754,3.4484 -5.916,6.85351 0.1994,3.13548 2.9633,5.91203 6.1446,5.91211 2.9781,0.15837 5.8987,-2.01677 6.457,-4.97265 0.6934,-2.77061 -0.7588,-5.86837 -3.334,-7.10157 -1.0302,-0.52332 -2.1987,-0.76012 -3.3516,-0.6914 z m -391.914,116.93945 c -0.1891,-0.004 -0.3793,0.001 -0.5684,0.0156 -3.5931,0.17071 -6.5975,3.8564 -5.8535,7.41794 0.4426,2.7755 2.8434,5.1495 5.6875,5.3281 2.8335,0.3045 5.7547,-1.4801 6.6348,-4.2187 0.9857,-2.56895 0.0254,-5.66819 -2.211,-7.25977 -1.0611,-0.78974 -2.3662,-1.25546 -3.6894,-1.2832 z m 198.8633,1.00586 c -0.2008,-0.005 -0.4026,-2.6e-4 -0.6036,0.0156 -3.6437,0.11968 -6.7081,3.89077 -5.9004,7.49018 0.4682,2.7135 2.8059,5.0268 5.5899,5.2364 2.791,0.3487 5.6854,-1.3523 6.6445,-4.0156 1.0317,-2.494 0.2483,-5.56254 -1.8691,-7.24223 -1.0769,-0.90124 -2.4561,-1.44701 -3.8613,-1.48438 z m 53.4726,61.56841 c -0.2391,-0.0119 -0.479,-0.009 -0.7187,0.008 -3.5867,0.153 -6.6031,3.8122 -5.8907,7.373 0.4275,2.7878 2.8266,5.1799 5.6797,5.3692 2.7076,0.3076 5.5029,-1.2924 6.502,-3.8477 0.9982,-2.2421 0.5718,-5.023 -1.1426,-6.8008 -1.1272,-1.2426 -2.7556,-2.0183 -4.4297,-2.1015 z m -304.7812,0.4707 c -0.1999,-0.005 -0.3996,-10e-5 -0.5996,0.0156 -3.5488,0.1752 -6.5446,3.7637 -5.877,7.3008 0.3964,2.7683 2.7266,5.1802 5.5547,5.4277 2.8596,0.3751 5.8598,-1.3878 6.7695,-4.1563 0.9665,-2.4953 0.13,-5.5115 -1.9883,-7.1484 -1.0856,-0.8837 -2.4605,-1.4063 -3.8593,-1.4394 z"/>
</svg>
